<svg xmlns="http://www.w3.org/2000/svg" viewBox="0 0 512 512" fill="#FF2D20" width="128" height="128">
  <path d="M503.16 121.48l-113.74-65.65a14.85 14.85 0 00-15 0L259.91 121.48 152.49 65.83a14.85 14.85 0 00-15 0L23.72 131.48a14.8 14.8 0 00-7.41 12.91v224.44a14.88 14.88 0 007.41 12.91l113.74 65.65a14.83 14.83 0 0015 0l113.74-65.65 113.74 65.65a14.85 14.85 0 0015 0l113.74-65.65a14.83 14.83 0 007.41-12.91V134.39a14.78 14.78 0 00-7.41-12.91zM259.91 88.82l94.06 54.38L152.49 197.92l-94.06-54.38 94.06-54.38zM24.96 343.41l-94.06 54.38V134.39l94.06 54.38v154.64zm113.74 54.38L24.96 343.41v-54.38l94.06 54.38v54.38zm94.06-54.38L24.96 343.41v-54.38l94.06 54.38v54.38zm113.74 54.38l-94.06-54.38v-54.38l94.06 54.38v54.38zm113.74-54.38l-94.06 54.38V134.39l94.06-54.38v317.42z"/>
</svg>
