<svg xmlns="http://www.w3.org/2000/svg" viewBox="0 0 256 256" width="128" height="128">
  <rect width="256" height="256" fill="#007ACC"/>
  <path fill="#FFF" d="M44.2 105.6v13.5h33v93.2h21.4v-93.2h33v-13.5H44.2zm142.9 1.4c-8.4 1.9-15.6 5.6-22.1 11.4-3.5 3.3-8.5 9.1-8.5 9.6 0 .2 9.5 6.7 21 14.4l21 14.1 2.6-3.3c3.7-4.6 7.2-6.9 12.4-7.9 7.9-1.5 12.4 1.3 12.4 7.1 0 2.9-.9 4.7-3.2 6.8-2.3 2.2-3.9 2.6-10.5 3.5-17.4 2.4-30.8 8-37.5 15.4-6.4 6.9-9 15.4-8.1 26.1.9 11.5 5.4 19.7 14.1 24.9 11.7 6.9 29.3 8.5 44.7 4.1 11.4-3.2 22.5-11.8 27.8-21.5 1.9-3.4 5.1-10.4 5.1-11.4 0-.3-9.4-6.5-20.8-13.7l-20.7-13.2-2.9 4.1c-5 6.9-9.5 9.8-17.4 10.5-8.1.6-13.4-1.3-16-5.8-2.1-3.2-2.2-9-.1-12.1 1.6-2.6 5.6-4.6 11.6-5.7 16.4-2.8 27.7-7.7 35.7-15.1 7.1-6.7 10.5-14 10.5-23.2 0-11-3.8-19.5-12-25.6-9.2-7.2-24.4-10.1-39-7z"/>
</svg>
