<svg xmlns="http://www.w3.org/2000/svg" viewBox="0 0 256 224" width="128" height="128">
  <g fill="none">
    <path fill="#D46A05" d="M153.6 150.9c15-11.3 24.4-29.6 24.4-51 0-3-.2-5.9-.5-8.8h-26.3c.2 2.9.3 5.9.3 8.8 0 16.4-6.3 29.2-16.6 36.2v15.4c6.7-2 13.3-5.2 18.7-9.6zm-79.1 0c5.5 4.4 12 7.6 18.7 9.6v-15.4c-10.3-7-16.6-19.8-16.6-36.2 0-3 .1-5.9.3-8.8H50.6c-.3 2.9-.5 5.9-.5 8.8 0 21.3 9.4 39.7 24.4 51zM230.2 58.6c-5.4-7.4-13-13.5-21.7-17.3-8.6-3.7-17.9-5.2-27.1-4.3-2.9-7.2-7.3-13.8-12.8-19.2C158.6 6.4 148.8 2 138.3 2c-19.6 0-36 14.4-39 33.6H96.7C93.7 16.4 77.4 2 57.6 2 47.2 2 37.5 6.3 30.1 12.8 24.4 18.2 19.9 24.8 17 32c-9.1-.7-18.4.6-27.1 4.3-8.7 3.8-16.3 9.8-21.7 17.3C-4.3 65.8-4.9 75.9.6 84.6c5.1 8 13.4 13 22.9 13h19c-3 14.3 1.6 29.5 12.1 39 10.7 9.6 25.5 12.7 39.2 8.3v28.2c0 9.1 7.5 16.5 16.7 16.5 9.1 0 16.7-7.4 16.7-16.5v-29.1c2.3-.2 4.6-.5 6.9-.5s4.7.2 6.9.5v29.1c0 9.1 7.5 16.5 16.7 16.5 9.1 0 16.7-7.4 16.7-16.5v-28.2c13.6 4.4 28.5 1.2 39.2-8.3 10.5-9.5 15.1-24.7 12.1-39h19c9.5 0 17.8-5 22.9-13 5.5-8.6 4.9-18.7-.7-26z"/>
  </g>
</svg>
