<svg xmlns="http://www.w3.org/2000/svg" viewBox="0 0 256 282" fill="#E0234E" width="128" height="128">
  <path d="M0 80.35c0-13.48 10.62-24.43 24.5-24.43h.12c5.45-.02 11.08-.02 16.8-.02 2.42 0 4.78-.26 7.14-.62 4.34-.74 8.57-1.92 12.86-3.16 2.68-.77 5.39-1.45 8.16-2.03 4.24-.85 8.49-1.58 12.82-2.17 7.95-.9 15.95-1.18 24.14-.98 15.38.33 29.88 3.31 43.8 7.99 8.07 2.64 15.77 5.96 23.1 10.3 3.9 2.26 7.72 4.79 11.56 7.23 7.25 4.59 14.41 9.31 21.74 14.06 5.95 3.8 12.08 7.42 18.55 10.7 3.52 1.74 6.96 3.5 10.47 5.21 7.55 3.64 15.05 7.44 22.68 10.93 2.42 1.06 5.01 1.9 7.5 2.88 3.12 1.19 6.33 2.1 9.52 3.1 3.93 1.2 7.93 2.35 11.96 3.45 1.88.47 3.8.92 5.7 1.41 4.5 1.14 9 2.17 13.62 2.97 4.75.82 9.56 1.26 14.38 1.45.22 0 .49.06.69.14.34.15.49.47.66.75 3.14 5.23 3.14 11.38.02 16.65-.47.77-.69 1.18-.7 1.19-3.29 4.58-6.54 9.19-10.02 13.58-.68.83-.88 1.26-.9 1.29-8.02 10.52-17.22 19.93-27.6 28.07-6.26 4.92-12.89 9.43-19.78 13.6-4.87 3-9.88 5.75-14.94 8.36-9.66 4.86-19.47 9.2-29.46 12.91-7.97 3.02-16.08 5.7-24.28 7.94-7.89 2.14-15.86 4.01-23.92 5.54-9.7 1.94-19.54 3.28-29.38 4.06-9.56.76-19.15 1.13-28.8.4-5.75-.43-11.5-.82-17.21-1.73-6.63-1.06-13.19-2.55-19.76-4.03-9.64-2.15-19.06-4.94-28.34-8.39-7.52-2.73-14.92-5.85-22.12-9.38-8.44-4.19-16.72-8.91-24.58-14.62-4.93-3.69-9.65-7.68-14.34-11.69-5.23-4.43-9.74-9.57-14.2-14.74-6.01-7.04-11.26-14.69-15.98-22.77C2.91 149.68.4 141.68.27 133.23 0 126.42 0 119.59 0 112.76v-32.4H.03c-.02 0-.03 0-.03-.02z"/>
</svg>
